<svg xmlns="http://www.w3.org/2000/svg" xmlns:xlink="http://www.w3.org/1999/xlink" width="485" zoomAndPan="magnify" viewBox="0 0 363.75 363.74999" height="485" preserveAspectRatio="xMidYMid meet" version="1.0"><defs><clipPath id="7673f00f2b"><path d="M 0 0 L 363.125 0 L 363.125 363.125 L 0 363.125 Z M 0 0 " clip-rule="nonzero"/></clipPath><clipPath id="979a3b05de"><path d="M 181.5625 0 C 81.289062 0 0 81.289062 0 181.5625 C 0 281.835938 81.289062 363.125 181.5625 363.125 C 281.835938 363.125 363.125 281.835938 363.125 181.5625 C 363.125 81.289062 281.835938 0 181.5625 0 Z M 181.5625 0 " clip-rule="nonzero"/></clipPath><clipPath id="9c7a4309ab"><path d="M 66.441406 93 L 296.535156 93 L 296.535156 270 L 66.441406 270 Z M 66.441406 93 " clip-rule="nonzero"/></clipPath></defs><g clip-path="url(#7673f00f2b)"><g clip-path="url(#979a3b05de)"><path stroke-linecap="butt" transform="matrix(0.749485, 0, 0, 0.749485, 0.00000525, 0.000000000000021302)" fill="none" stroke-linejoin="miter" d="M 242.249708 -0.000000000000028422 C 108.459902 -0.000000000000028422 -0.00000700481 108.459909 -0.00000700481 242.249715 C -0.00000700481 376.039521 108.459902 484.49943 242.249708 484.49943 C 376.039514 484.49943 484.499423 376.039521 484.499423 242.249715 C 484.499423 108.459909 376.039514 -0.000000000000028422 242.249708 -0.000000000000028422 Z M 242.249708 -0.000000000000028422 " stroke="#000000" stroke-width="48" stroke-opacity="1" stroke-miterlimit="4"/></g></g><g clip-path="url(#9c7a4309ab)"><path fill="#000000" d="M 66.441406 269.476562 L 296.535156 269.476562 L 296.535156 93.527344 L 66.441406 93.527344 Z M 79.976562 111.582031 L 79.976562 107.058594 L 283 107.058594 L 283 111.582031 L 181.488281 199.613281 Z M 283 129.5 L 283 243.410156 L 240.917969 190.8125 L 230.335938 199.257812 L 275.675781 255.941406 L 87.300781 255.941406 L 132.640625 199.257812 L 122.054688 190.8125 L 79.976562 243.410156 L 79.976562 129.5 L 181.488281 217.53125 Z M 283 129.5 " fill-opacity="1" fill-rule="evenodd"/></g></svg>