<svg xmlns="http://www.w3.org/2000/svg" xmlns:xlink="http://www.w3.org/1999/xlink" width="485" zoomAndPan="magnify" viewBox="0 0 363.75 363.74999" height="485" preserveAspectRatio="xMidYMid meet" version="1.0"><defs><clipPath id="359d8b0144"><path d="M 0 0 L 363.125 0 L 363.125 363.125 L 0 363.125 Z M 0 0 " clip-rule="nonzero"/></clipPath><clipPath id="465af2c8e6"><path d="M 181.5625 0 C 81.289062 0 0 81.289062 0 181.5625 C 0 281.835938 81.289062 363.125 181.5625 363.125 C 281.835938 363.125 363.125 281.835938 363.125 181.5625 C 363.125 81.289062 281.835938 0 181.5625 0 Z M 181.5625 0 " clip-rule="nonzero"/></clipPath></defs><g clip-path="url(#359d8b0144)"><g clip-path="url(#465af2c8e6)"><path stroke-linecap="butt" transform="matrix(0.749485, 0, 0, 0.749485, 0.00000525, 0.000000000000021302)" fill="none" stroke-linejoin="miter" d="M 242.249708 -0.000000000000028422 C 108.459902 -0.000000000000028422 -0.00000700481 108.459909 -0.00000700481 242.249715 C -0.00000700481 376.039521 108.459902 484.49943 242.249708 484.49943 C 376.039514 484.49943 484.499423 376.039521 484.499423 242.249715 C 484.499423 108.459909 376.039514 -0.000000000000028422 242.249708 -0.000000000000028422 Z M 242.249708 -0.000000000000028422 " stroke="#000000" stroke-width="48" stroke-opacity="1" stroke-miterlimit="4"/></g></g><path stroke-linecap="round" transform="matrix(1.545812, 0, 0, 1.545812, 33.220921, 38.65468)" fill="none" stroke-linejoin="round" d="M 120.755784 169.999097 C 120.786108 165.33175 120.813905 149.126174 120.813905 142.710151 C 120.813905 133.438631 117.647589 127.371332 114.094643 124.301041 C 136.145143 121.837228 159.294882 113.437519 159.294882 75.231983 C 159.294882 64.378569 155.471549 55.498732 149.121228 48.549514 C 150.137077 46.035161 153.533349 35.919627 148.133175 22.230931 C 148.133175 22.230931 139.837073 19.557378 120.932674 32.43491 C 113.020673 30.221268 104.560317 29.127082 96.147973 29.081596 C 87.733102 29.127082 79.275272 30.221268 71.363272 32.43491 C 52.456345 19.557378 44.16277 22.230931 44.16277 22.230931 C 38.762596 35.919627 42.158868 46.035161 43.174717 48.549514 C 36.824396 55.498732 33.001063 64.378569 33.001063 75.231983 C 33.001063 113.437519 56.148275 121.837228 78.198775 124.301041 C 74.648356 127.371332 71.48204 133.438631 71.48204 142.710151 C 71.48204 149.126174 71.509837 165.33175 71.540161 169.999097 M 26.999465 129.9994 C 36.93811 130.701903 42.66932 139.735886 42.66932 139.735886 C 51.503671 154.933193 65.846856 150.538761 71.484567 147.999137 " stroke="#000000" stroke-width="12" stroke-opacity="1" stroke-miterlimit="4"/></svg>