<svg xmlns="http://www.w3.org/2000/svg" xmlns:xlink="http://www.w3.org/1999/xlink" width="485" zoomAndPan="magnify" viewBox="0 0 363.75 363.74999" height="485" preserveAspectRatio="xMidYMid meet" version="1.0"><defs><clipPath id="69fc2a4ecc"><path d="M 0 0 L 363.125 0 L 363.125 363.125 L 0 363.125 Z M 0 0 " clip-rule="nonzero"/></clipPath><clipPath id="4becbce3be"><path d="M 181.5625 0 C 81.289062 0 0 81.289062 0 181.5625 C 0 281.835938 81.289062 363.125 181.5625 363.125 C 281.835938 363.125 363.125 281.835938 363.125 181.5625 C 363.125 81.289062 281.835938 0 181.5625 0 Z M 181.5625 0 " clip-rule="nonzero"/></clipPath><clipPath id="657a045717"><path d="M 67.453125 66.441406 L 297.546875 66.441406 L 297.546875 296.535156 L 67.453125 296.535156 Z M 67.453125 66.441406 " clip-rule="nonzero"/></clipPath></defs><g clip-path="url(#69fc2a4ecc)"><g clip-path="url(#4becbce3be)"><path stroke-linecap="butt" transform="matrix(0.749485, 0, 0, 0.749485, 0.00000525, 0.000000000000021302)" fill="none" stroke-linejoin="miter" d="M 242.249708 -0.000000000000028422 C 108.459902 -0.000000000000028422 -0.00000700481 108.459909 -0.00000700481 242.249715 C -0.00000700481 376.039521 108.459902 484.49943 242.249708 484.49943 C 376.039514 484.49943 484.499423 376.039521 484.499423 242.249715 C 484.499423 108.459909 376.039514 -0.000000000000028422 242.249708 -0.000000000000028422 Z M 242.249708 -0.000000000000028422 " stroke="#000000" stroke-width="48" stroke-opacity="1" stroke-miterlimit="4"/></g></g><g clip-path="url(#657a045717)"><path fill="#000000" d="M 207.425781 138.503906 L 207.425781 147.488281 C 216.09375 142.101562 226.097656 138.964844 241.296875 138.964844 C 290.773438 138.964844 297.109375 175.945312 297.109375 208.160156 L 297.109375 296.03125 L 239.902344 296.535156 L 239.902344 212.496094 C 239.902344 198.386719 234.847656 195.710938 225.507812 195.710938 C 216.625 195.710938 211.113281 198.515625 211.113281 212.496094 L 211.113281 296.535156 L 153.15625 296.03125 L 153.15625 138.503906 Z M 125.035156 138.410156 L 125.035156 296.46875 L 67.453125 296.46875 L 67.453125 138.410156 Z M 110.640625 152.804688 L 81.847656 152.804688 L 81.847656 282.074219 L 110.640625 282.074219 Z M 193.03125 152.898438 L 167.550781 152.898438 L 167.550781 281.765625 L 196.714844 282.023438 L 196.714844 212.496094 C 196.714844 185.359375 214.753906 181.316406 225.507812 181.316406 C 238.636719 181.316406 254.296875 186.726562 254.296875 212.496094 L 254.296875 282.023438 L 282.710938 281.765625 L 282.710938 208.160156 C 282.710938 168.214844 271.5 153.359375 241.296875 153.359375 C 223.144531 153.359375 215.285156 158.742188 207.585938 165.222656 L 205.582031 166.917969 L 193.03125 166.917969 Z M 96.242188 66.441406 C 112.121094 66.441406 125.035156 79.355469 125.035156 95.230469 C 125.035156 111.109375 112.121094 124.023438 96.242188 124.023438 C 80.367188 124.023438 67.453125 111.109375 67.453125 95.230469 C 67.453125 79.355469 80.367188 66.441406 96.242188 66.441406 Z M 96.242188 80.835938 C 88.3125 80.835938 81.847656 87.300781 81.847656 95.230469 C 81.847656 103.164062 88.3125 109.628906 96.242188 109.628906 C 104.175781 109.628906 110.640625 103.164062 110.640625 95.230469 C 110.640625 87.300781 104.175781 80.835938 96.242188 80.835938 Z M 96.242188 80.835938 " fill-opacity="1" fill-rule="evenodd"/></g></svg>