<svg xmlns="http://www.w3.org/2000/svg" xmlns:xlink="http://www.w3.org/1999/xlink" width="485" zoomAndPan="magnify" viewBox="0 0 363.75 363.74999" height="485" preserveAspectRatio="xMidYMid meet" version="1.0"><defs><clipPath id="93e920401e"><path d="M 0 0 L 363.125 0 L 363.125 363.125 L 0 363.125 Z M 0 0 " clip-rule="nonzero"/></clipPath><clipPath id="d5afc666ef"><path d="M 181.5625 0 C 81.289062 0 0 81.289062 0 181.5625 C 0 281.835938 81.289062 363.125 181.5625 363.125 C 281.835938 363.125 363.125 281.835938 363.125 181.5625 C 363.125 81.289062 281.835938 0 181.5625 0 Z M 181.5625 0 " clip-rule="nonzero"/></clipPath></defs><g clip-path="url(#93e920401e)"><g clip-path="url(#d5afc666ef)"><path stroke-linecap="butt" transform="matrix(0.749485, 0, 0, 0.749485, 0.00000525, 0.000000000000021302)" fill="none" stroke-linejoin="miter" d="M 242.249708 -0.000000000000028422 C 108.459902 -0.000000000000028422 -0.00000700481 108.459909 -0.00000700481 242.249715 C -0.00000700481 376.039521 108.459902 484.49943 242.249708 484.49943 C 376.039514 484.49943 484.499423 376.039521 484.499423 242.249715 C 484.499423 108.459909 376.039514 -0.000000000000028422 242.249708 -0.000000000000028422 Z M 242.249708 -0.000000000000028422 " stroke="#000000" stroke-width="48" stroke-opacity="1" stroke-miterlimit="4"/></g></g><path stroke-linecap="round" transform="matrix(12.335273, 0, 0, 12.335273, 33.687365, 28.253595)" fill="none" stroke-linejoin="round" d="M 12.000024 20.999891 C 15.499896 17.39995 19.000085 14.176534 19.000085 10.200068 C 19.000085 6.223603 15.865971 2.99987 12.000024 2.99987 C 8.134078 2.99987 4.999964 6.223603 4.999964 10.200068 C 4.999964 14.176534 8.500152 17.39995 12.000024 20.999891 Z M 12.000024 20.999891 " stroke="#000000" stroke-width="2" stroke-opacity="1" stroke-miterlimit="4"/><path stroke-linecap="round" transform="matrix(12.335273, 0, 0, 12.335273, 33.687365, 28.253595)" fill="none" stroke-linejoin="round" d="M 12.000024 13.000093 C 13.656859 13.000093 14.999869 11.656765 14.999869 9.999931 C 14.999869 8.343097 13.656859 7.000086 12.000024 7.000086 C 10.34319 7.000086 8.999863 8.343097 8.999863 9.999931 C 8.999863 11.656765 10.34319 13.000093 12.000024 13.000093 Z M 12.000024 13.000093 " stroke="#000000" stroke-width="2" stroke-opacity="1" stroke-miterlimit="4"/></svg>