<svg xmlns="http://www.w3.org/2000/svg" xmlns:xlink="http://www.w3.org/1999/xlink" width="485" zoomAndPan="magnify" viewBox="0 0 363.75 363.74999" height="485" preserveAspectRatio="xMidYMid meet" version="1.0"><defs><clipPath id="e5acd0ab23"><path d="M 0 0 L 363.125 0 L 363.125 363.125 L 0 363.125 Z M 0 0 " clip-rule="nonzero"/></clipPath><clipPath id="2982780a19"><path d="M 181.5625 0 C 81.289062 0 0 81.289062 0 181.5625 C 0 281.835938 81.289062 363.125 181.5625 363.125 C 281.835938 363.125 363.125 281.835938 363.125 181.5625 C 363.125 81.289062 281.835938 0 181.5625 0 Z M 181.5625 0 " clip-rule="nonzero"/></clipPath></defs><g clip-path="url(#e5acd0ab23)"><g clip-path="url(#2982780a19)"><path stroke-linecap="butt" transform="matrix(0.749485, 0, 0, 0.749485, 0.00000525, 0.000000000000021302)" fill="none" stroke-linejoin="miter" d="M 242.249708 -0.000000000000028422 C 108.459902 -0.000000000000028422 -0.00000700481 108.459909 -0.00000700481 242.249715 C -0.00000700481 376.039521 108.459902 484.49943 242.249708 484.49943 C 376.039514 484.49943 484.499423 376.039521 484.499423 242.249715 C 484.499423 108.459909 376.039514 -0.000000000000028422 242.249708 -0.000000000000028422 Z M 242.249708 -0.000000000000028422 " stroke="#000000" stroke-width="48" stroke-opacity="1" stroke-miterlimit="4"/></g></g><path stroke-linecap="round" transform="matrix(10.680159, 0, 0, 10.680159, 53.341872, 53.341867)" fill="none" stroke-linejoin="round" d="M 18.000113 9.000145 L 18.000113 5.999911 M 18.000113 5.999911 L 18.000113 3.000044 M 18.000113 5.999911 L 14.999879 5.999911 M 18.000113 5.999911 L 20.99998 5.999911 M 18.500091 20.999981 C 9.939752 20.999981 3.000043 14.060273 3.000043 5.499934 C 3.000043 5.113703 3.014308 4.730765 3.041739 4.35185 C 3.073925 3.916609 3.089652 3.698989 3.203765 3.501119 C 3.298128 3.336898 3.465641 3.181455 3.63608 3.099162 C 3.84163 3.000044 4.081927 3.000044 4.562154 3.000044 L 7.379148 3.000044 C 7.782934 3.000044 7.984827 3.000044 8.158192 3.06661 C 8.310709 3.12513 8.447133 3.22059 8.554297 3.344213 C 8.676091 3.483929 8.744852 3.673752 8.883105 4.053033 L 10.04911 7.259914 C 10.209674 7.701373 10.289773 7.922285 10.27624 8.131858 C 10.26417 8.316195 10.201262 8.493949 10.094097 8.645003 C 9.973035 8.816173 9.771507 8.937236 9.368453 9.178996 L 7.999823 10.000101 C 9.202037 12.64885 11.350077 14.799816 13.999924 15.999836 L 14.821029 14.631571 C 15.062788 14.228517 15.183851 14.026989 15.355021 13.905927 C 15.506075 13.798763 15.683463 13.735854 15.868166 13.723784 C 16.07774 13.710251 16.298652 13.79035 16.74011 13.950914 L 19.946625 15.116919 C 20.326272 15.255172 20.516095 15.323933 20.655811 15.445727 C 20.779434 15.552891 20.874894 15.68895 20.933414 15.841833 C 20.99998 16.014831 20.99998 16.216725 20.99998 16.620876 L 20.99998 19.43787 C 20.99998 19.918097 20.99998 20.158028 20.900863 20.363945 C 20.818569 20.534383 20.663126 20.701896 20.498905 20.796259 C 20.301035 20.910372 20.083415 20.9261 19.648175 20.95792 C 19.269259 20.986082 18.886321 20.999981 18.500091 20.999981 Z M 18.500091 20.999981 " stroke="#000000" stroke-width="2" stroke-opacity="1" stroke-miterlimit="4"/></svg>